<?xml version="1.0" standalone="no"?>
<!DOCTYPE svg PUBLIC "-//W3C//DTD SVG 20010904//EN"
 "http://www.w3.org/TR/2001/REC-SVG-20010904/DTD/svg10.dtd">
<svg version="1.0" xmlns="http://www.w3.org/2000/svg"
 width="512.000000pt" height="512.000000pt" viewBox="0 0 512.000000 512.000000"
 preserveAspectRatio="xMidYMid meet">
<metadata>
Created by potrace 1.14, written by Peter Selinger 2001-2017
</metadata>
<g transform="translate(0.000000,512.000000) scale(0.100000,-0.100000)"
fill="#000000" stroke="none">
<path d="M315 5102 c-18 -11 -43 -45 -63 -85 -19 -37 -37 -69 -41 -71 -3 -2
-33 -7 -65 -11 -101 -11 -149 -51 -144 -122 2 -30 14 -50 61 -100 l59 -63 -12
-79 c-12 -73 -12 -81 6 -112 14 -23 33 -39 62 -49 41 -14 43 -14 118 23 l76
38 74 -37 c59 -29 80 -35 108 -30 52 10 95 67 87 118 0 4 -3 26 -6 50 -3 24
-8 51 -11 61 -4 13 8 31 38 61 61 60 69 71 78 111 6 28 4 41 -14 68 -26 39
-55 53 -121 61 -77 10 -79 12 -110 76 -16 33 -39 69 -51 81 -31 29 -92 35
-129 11z"/>
<path d="M2378 5115 c-2 -1 -34 -5 -73 -9 -38 -3 -97 -10 -130 -16 -33 -6 -76
-13 -95 -16 -87 -14 -273 -66 -395 -110 -102 -37 -99 -36 -237 -103 -105 -52
-128 -67 -136 -91 -6 -16 -9 -37 -6 -47 3 -14 -14 -29 -71 -65 -41 -26 -75
-43 -75 -39 0 13 -58 31 -78 24 -71 -26 -379 -313 -511 -477 -59 -72 -166
-228 -228 -331 -150 -248 -267 -588 -319 -930 -19 -118 -25 -443 -12 -590 27
-300 117 -613 263 -905 106 -213 138 -253 196 -243 23 3 32 -4 65 -49 21 -29
43 -56 48 -60 6 -4 4 -14 -6 -25 -20 -24 -16 -78 8 -105 159 -179 249 -267
389 -377 236 -188 488 -323 785 -421 173 -58 346 -95 540 -117 86 -10 427 -10
515 0 132 14 263 34 275 42 4 2 22 7 41 10 86 15 256 67 396 123 745 296 1331
974 1518 1758 32 137 33 139 40 199 4 28 8 57 10 65 10 35 19 174 19 282 l1
118 -30 29 c-57 58 -154 46 -188 -22 -9 -18 -33 -75 -53 -127 -135 -350 -386
-659 -701 -863 -81 -52 -85 -56 -85 -103 0 -33 -4 -37 -69 -69 -38 -19 -73
-35 -79 -35 -6 0 -24 10 -40 22 l-29 21 -103 -31 c-121 -36 -208 -59 -262 -68
-21 -3 -48 -7 -60 -10 -51 -10 -159 -17 -261 -17 -105 0 -273 11 -286 19 -4 2
-24 6 -45 10 -130 19 -322 83 -472 156 -553 270 -937 814 -1008 1432 -22 194
-4 450 46 646 149 584 585 1064 1150 1265 41 14 85 34 97 45 52 42 53 127 2
176 -30 28 -33 29 -144 30 -63 1 -115 0 -117 -1z"/>
<path d="M3937 5103 c-16 -10 -45 -49 -66 -88 l-37 -70 -70 -11 c-83 -12 -109
-25 -129 -64 -29 -57 -19 -88 57 -166 l50 -52 -8 -48 c-20 -123 -3 -175 67
-195 38 -12 44 -11 116 25 l76 37 73 -37 c82 -41 124 -42 163 0 33 35 39 72
24 149 l-13 70 59 58 c62 62 72 85 59 135 -13 51 -47 73 -132 88 -42 7 -78 15
-80 17 -2 2 -17 31 -34 64 -16 33 -39 68 -50 78 -30 27 -91 32 -125 10z"/>
<path d="M3450 4010 c-53 -15 -73 -37 -127 -145 -30 -60 -56 -111 -57 -112 -1
-1 -17 -5 -36 -8 -19 -3 -46 -7 -60 -10 -14 -3 -47 -7 -75 -11 -113 -14 -167
-72 -150 -162 5 -29 26 -56 98 -126 l90 -89 -19 -119 c-17 -101 -18 -125 -7
-156 16 -47 51 -77 99 -87 34 -6 52 0 156 52 l118 60 102 -55 c116 -63 172
-72 221 -36 57 41 64 96 32 254 -18 90 -21 80 54 153 112 108 121 122 121 177
0 37 -6 55 -25 79 -31 36 -62 47 -188 64 -54 8 -102 18 -107 23 -5 5 -31 55
-59 110 -62 128 -109 164 -181 144z"/>
<path d="M2110 3792 c-22 -22 -27 -35 -23 -58 11 -58 83 -84 123 -44 11 11 20
23 21 28 0 4 2 16 4 26 5 24 -46 76 -75 76 -12 0 -34 -13 -50 -28z"/>
<path d="M4159 3172 c-45 -37 -21 -112 42 -127 19 -5 33 0 52 17 37 33 40 75
7 108 -25 25 -71 26 -101 2z"/>
<path d="M2408 2933 c-31 -12 -43 -27 -75 -89 -41 -79 -35 -75 -134 -88 -87
-12 -114 -39 -114 -111 0 -53 2 -56 57 -112 47 -47 57 -63 53 -83 -17 -80 -17
-137 -1 -168 33 -64 94 -71 189 -20 l64 34 74 -37 c40 -20 82 -35 94 -33 43 8
72 26 89 55 18 30 18 63 0 164 -4 26 2 37 41 75 85 85 97 140 42 195 -28 28
-45 35 -109 45 l-76 12 -30 62 c-48 97 -96 126 -164 99z"/>
<path d="M3186 2014 c-33 -33 -38 -52 -21 -89 35 -72 127 -50 133 33 2 32 -1
43 -20 56 -29 20 -72 20 -92 0z"/>
<path d="M4715 713 c-33 -8 -55 -34 -90 -104 l-34 -66 -76 -10 c-86 -12 -120
-35 -133 -87 -13 -50 -3 -74 58 -136 l58 -59 -12 -64 c-17 -90 -6 -140 36
-166 44 -27 82 -24 157 14 l71 35 55 -30 c75 -42 126 -48 164 -21 34 24 54 76
46 117 -21 115 -22 112 39 173 43 44 56 64 60 94 10 78 -27 112 -137 131 l-72
11 -30 56 c-35 64 -55 92 -73 103 -18 11 -62 15 -87 9z"/>
<path d="M424 506 c-50 -22 -60 -78 -21 -114 46 -44 116 -18 123 45 3 31 -10
54 -43 71 -26 14 -21 14 -59 -2z"/>
</g>
</svg>
